<svg width="18" height="18" viewBox="0 0 18 18" fill="none" xmlns="http://www.w3.org/2000/svg">
<g clip-path="url(#clip0_363_75)">
<path d="M17.7299 11.1771C16.5278 15.9985 11.6442 18.9325 6.82215 17.7305C2.00237 16.5284 -0.931909 11.6448 0.270435 6.82361C1.47194 2.00158 6.35528 -0.932983 11.1759 0.26908C15.9977 1.47114 18.9319 6.35533 17.7299 11.1771Z" fill="#F7931A"/>
<path d="M12.9683 7.71783C13.1472 6.52027 12.2353 5.87649 10.9886 5.44702L11.393 3.82477L10.4052 3.57867L10.0115 5.15817C9.75218 5.09349 9.48556 5.03246 9.22062 4.97199L9.61718 3.38208L8.63028 3.13599L8.22556 4.75767C8.01068 4.70874 7.79975 4.66036 7.595 4.60946L7.59612 4.60439L6.23431 4.26436L5.97162 5.31905C5.97162 5.31905 6.70428 5.48696 6.68881 5.49736C7.08875 5.59721 7.16131 5.86186 7.14894 6.07167L6.68825 7.91977C6.71581 7.9268 6.75153 7.93692 6.7909 7.95267L6.68684 7.9268L6.04081 10.5157C5.99187 10.6372 5.86784 10.8195 5.58828 10.7503C5.59812 10.7646 4.87053 10.5711 4.87053 10.5711L4.38031 11.7017L5.66562 12.0221C5.90469 12.082 6.13897 12.1447 6.36931 12.2038L5.96065 13.8449L6.947 14.091L7.352 12.4676C7.62115 12.5407 7.88272 12.6082 8.13865 12.6718L7.73534 14.2875L8.72281 14.5336L9.13147 12.8959C10.8153 13.2146 12.0818 13.086 12.6142 11.5634C13.0437 10.3371 12.5931 9.62977 11.7072 9.16824C12.3523 9.01889 12.8386 8.59449 12.9683 7.71783ZM10.7118 10.8816C10.4064 12.1079 8.342 11.4452 7.67234 11.2787L8.21459 9.10496C8.88397 9.27202 11.0299 9.60277 10.7118 10.8816ZM11.017 7.70011C10.7385 8.81555 9.02009 8.24883 8.46237 8.10989L8.954 6.13833C9.51172 6.27727 11.3072 6.53658 11.017 7.70011Z" fill="white"/>
</g>
<defs>
<clipPath id="clip0_363_75">
<rect width="18" height="18" fill="white"/>
</clipPath>
</defs>
</svg>
