<svg width="18" height="18" viewBox="0 0 18 18" fill="none" xmlns="http://www.w3.org/2000/svg">
<g clip-path="url(#clip0_363_19)">
<path d="M17.7299 11.1772C16.5278 15.9987 11.6442 18.9327 6.82215 17.7306C2.00237 16.5285 -0.931909 11.6449 0.270435 6.82373C1.47194 2.0017 6.35528 -0.932861 11.1759 0.269202C15.9977 1.47126 18.9319 6.35545 17.7299 11.1772Z" fill="#0166EB"/>
<path d="M12.2972 8.58058L11.7486 8.89194L8.95939 9.94466L5.70276 8.58058L8.95939 3L12.2972 8.58058Z" fill="#FEFEFE"/>
<path d="M12.2972 8.58065L8.95939 10.4743L5.70276 8.58065L8.95939 7.06018L12.2972 8.58065Z" fill="#C0CBF8"/>
<path d="M12.2972 9.91223L8.95939 15L5.70276 9.91223L8.95939 11.8055L12.2972 9.91223Z" fill="#FEFEFE"/>
<path d="M12.2972 9.91218L8.95941 14.9999V11.8054L12.2972 9.91218ZM12.2972 8.58058L11.7486 8.89194L8.95941 7.29699V3L12.2972 8.58058Z" fill="#C0CBF8"/>
<path d="M12.2972 8.58065L8.95941 10.4743V7.06018L12.2972 8.58065Z" fill="#8095F0"/>
</g>
<defs>
<clipPath id="clip0_363_19">
<rect width="18" height="18" fill="white"/>
</clipPath>
</defs>
</svg>
