<svg width="18" height="19" viewBox="0 0 18 19" fill="none" xmlns="http://www.w3.org/2000/svg">
<path d="M15.3961 7.08923H8.17852C7.29271 7.08923 6.57462 7.84076 6.57462 8.7678V16.3214C6.57462 17.2484 7.29271 17.9999 8.17852 17.9999H15.3961C16.2819 17.9999 17 17.2484 17 16.3214V8.7678C17 7.84076 16.2819 7.08923 15.3961 7.08923Z" stroke="white" stroke-width="2" stroke-linecap="round" stroke-linejoin="round"/>
<path d="M3.40585 12.1249H2.6039C2.17852 12.1249 1.77056 11.9481 1.46977 11.6333C1.16898 11.3185 1 10.8916 1 10.4464V2.8928C1 2.44762 1.16898 2.02067 1.46977 1.70588C1.77056 1.39108 2.17852 1.21423 2.6039 1.21423H9.82146C10.2468 1.21423 10.6548 1.39108 10.9556 1.70588C11.2564 2.02067 11.4254 2.44762 11.4254 2.8928V3.73209" stroke="white" stroke-width="2" stroke-linecap="round" stroke-linejoin="round"/>
</svg>
