<svg width="26" height="26" viewBox="0 0 26 26" fill="none" xmlns="http://www.w3.org/2000/svg">
<path fill-rule="evenodd" clip-rule="evenodd" d="M13.9769 2.61681C13.3319 2.48782 12.6678 2.48782 12.0228 2.61681C10.5897 2.90344 9.35467 3.80493 8.64489 5.08253L1.94348 17.1451C1.55688 17.8409 1.354 18.6239 1.354 19.4199C1.354 22.007 3.45121 24.1042 6.03824 24.1042H19.9614C22.5485 24.1042 24.6457 22.007 24.6457 19.4199C24.6457 18.6239 24.4428 17.8409 24.0562 17.1451L17.3548 5.08253C16.645 3.80493 15.41 2.90344 13.9769 2.61681ZM13 14.8959C12.5513 14.8959 12.1875 14.5321 12.1875 14.0834V9.75004C12.1875 9.30131 12.5513 8.93754 13 8.93754C13.4487 8.93754 13.8125 9.30131 13.8125 9.75004V14.0834C13.8125 14.5321 13.4487 14.8959 13 14.8959ZM13.8125 17.875C13.8125 18.3238 13.4487 18.6875 13 18.6875C12.5513 18.6875 12.1875 18.3238 12.1875 17.875V17.3334C12.1875 16.8846 12.5513 16.5209 13 16.5209C13.4487 16.5209 13.8125 16.8846 13.8125 17.3334V17.875Z" fill="#737A84"/>
</svg>
