<svg width="18" height="18" viewBox="0 0 18 18" fill="none" xmlns="http://www.w3.org/2000/svg">
<path d="M9 18C13.9706 18 18 13.9706 18 9C18 4.02944 13.9706 0 9 0C4.02944 0 0 4.02944 0 9C0 13.9706 4.02944 18 9 18Z" fill="#D60101"/>
<path d="M7.97792 8.14822V5.84854H4.94006V3.83276H13.429V5.87693H10.3912V8.14822H7.97792Z" fill="white"/>
<path d="M9.11359 7.2397C12.2934 7.2397 13.9401 8.11983 14.1388 8.40374C13.9401 8.68765 12.3218 9.11352 9.11359 9.11352C5.93378 9.11352 4.28709 8.68765 4.08835 8.40374C4.28709 8.09144 5.93378 7.2397 9.11359 7.2397ZM9.11359 7.01257C6.07574 7.01257 3.63409 7.63718 3.63409 8.40374C3.63409 9.1703 6.07574 9.79491 9.11359 9.79491C12.1514 9.79491 14.5931 9.1703 14.5931 8.40374C14.5931 7.63718 12.1514 7.01257 9.11359 7.01257Z" fill="white"/>
<path d="M10.3912 8.85799V7.26809C9.99368 7.23969 9.56781 7.2113 9.14194 7.2113C8.74447 7.2113 8.37538 7.2113 8.0063 7.23969V8.8296C8.34699 8.8296 8.74447 8.85799 9.14194 8.85799C9.56781 8.88638 9.99368 8.88638 10.3912 8.85799ZM9.11355 9.7949C8.71608 9.7949 8.34699 9.7949 7.97791 9.76651V13.9968H10.3628V9.73812C9.96529 9.76651 9.53942 9.7949 9.11355 9.7949Z" fill="white"/>
</svg>
