<svg width="40" height="41" viewBox="0 0 40 41" fill="none" xmlns="http://www.w3.org/2000/svg">
<rect y="0.5" width="40" height="40" rx="20" fill="#262A31"/>
<path fill-rule="evenodd" clip-rule="evenodd" d="M13.5999 15.743C12.7162 15.743 11.9999 16.4593 11.9999 17.343V18.6668C11.9999 19.3734 12.4634 19.9963 13.1401 20.1994L19.0804 21.9815C19.6803 22.1614 20.3197 22.1614 20.9195 21.9815L26.8598 20.1994C27.5366 19.9963 28.0001 19.3734 28.0001 18.6668V17.343C28.0001 16.4593 27.2837 15.743 26.4 15.743H13.5999ZM20.6 18.486C20.6 18.1546 20.3314 17.886 20 17.886C19.6686 17.886 19.4 18.1546 19.4 18.486V19.8574C19.4 20.1888 19.6686 20.4574 20 20.4574C20.3314 20.4574 20.6 20.1888 20.6 19.8574V18.486Z" fill="white"/>
<path fill-rule="evenodd" clip-rule="evenodd" d="M12.0667 21.0101V24.2C12.0667 26.2987 13.768 28 15.8667 28H24.1335C26.2322 28 27.9335 26.2987 27.9335 24.2V21.0099C27.7121 21.1548 27.4676 21.2699 27.2046 21.3488L21.2643 23.1309C20.4395 23.3783 19.5603 23.3783 18.7356 23.1309L12.7953 21.3488C12.5324 21.2699 12.288 21.1549 12.0667 21.0101ZM12.1159 19.2654L20.0001 20.6001L27.8839 19.2655C27.7059 19.7064 27.3355 20.0567 26.8598 20.1994L20.9195 21.9815C20.3197 22.1614 19.6802 22.1614 19.0804 21.9815L13.1401 20.1994C12.6643 20.0566 12.294 19.7064 12.1159 19.2654ZM19.9999 21.8001L20 21.8001L20 21.8001L19.9999 21.8001Z" fill="white"/>
<path d="M22.6666 15.7429V14.6C22.6666 13.7163 21.9503 13 21.0666 13H18.9333C18.0496 13 17.3333 13.7163 17.3333 14.6L17.3333 15.7429" stroke="white" stroke-width="1.20001"/>
</svg>
